# Blender 5.0.1
# www.blender.org
mtllib Environment_Decals.mtl
o Plane.004
v 24.315098 0.365800 -1.579530
v 24.315098 0.365800 -6.772278
v 21.386734 0.365800 -1.579530
v 21.386734 0.365800 -6.772278
vn -0.0000 1.0000 -0.0000
vt 0.000000 0.000000
vt 1.000000 0.000000
vt 1.000000 1.000000
vt 0.000000 1.000000
s 0
usemtl Material.007
f 1/1/1 2/2/1 4/3/1 3/4/1
o Plane.005
v -33.554676 0.365800 -3.244870
v -30.151852 0.365800 -3.244870
v -33.554676 0.365800 -5.163836
v -30.151852 0.365800 -5.163836
vn -0.0000 1.0000 -0.0000
vt 0.000000 0.000000
vt 1.000000 0.000000
vt 1.000000 1.000000
vt 0.000000 1.000000
s 0
usemtl Material.007
f 5/5/2 6/6/2 8/7/2 7/8/2
o Plane.006
v 47.915939 0.365800 16.426445
v 51.318764 0.365800 16.426445
v 47.915939 0.365800 14.507480
v 51.318764 0.365800 14.507480
vn -0.0000 1.0000 -0.0000
vt 0.000000 0.000000
vt 1.000000 0.000000
vt 1.000000 1.000000
vt 0.000000 1.000000
s 0
usemtl Material.007
f 9/9/3 10/10/3 12/11/3 11/12/3
o Plane.007
v -18.118509 0.365800 -7.998836
v -30.370047 0.365800 -7.998839
v -18.118509 0.365800 -5.847049
v -30.370047 0.365800 -5.847053
vn -0.0000 1.0000 -0.0000
vt 0.000000 0.000000
vt 1.000000 0.000000
vt 1.000000 1.000000
vt 0.000000 1.000000
s 0
usemtl Material.008
f 13/13/4 14/14/4 16/15/4 15/16/4
o Plane.008
v -5.382638 0.365800 -7.951728
v -18.349062 0.365800 -7.951732
v -5.382638 0.365800 -5.799941
v -18.349064 0.365800 -5.799945
vn -0.0000 1.0000 -0.0000
vt 0.000000 0.000000
vt 1.000000 0.000000
vt 1.000000 1.000000
vt 0.000000 1.000000
s 0
usemtl Material.008
f 17/17/5 18/18/5 20/19/5 19/20/5
o Plane.009
v 7.268945 0.365800 -7.951728
v -5.697480 0.365800 -7.951732
v 7.268944 0.365800 -5.799941
v -5.697481 0.365800 -5.799945
vn -0.0000 1.0000 -0.0000
vt 0.000000 0.000000
vt 1.000000 0.000000
vt 1.000000 1.000000
vt 0.000000 1.000000
s 0
usemtl Material.008
f 21/21/6 22/22/6 24/23/6 23/24/6
o Plane.010
v 19.959253 0.365800 -7.951728
v 6.992828 0.365800 -7.951732
v 19.959251 0.365800 -5.799941
v 6.992827 0.365800 -5.799945
vn -0.0000 1.0000 -0.0000
vt 0.000000 0.000000
vt 1.000000 0.000000
vt 1.000000 1.000000
vt 0.000000 1.000000
s 0
usemtl Material.008
f 25/25/7 26/26/7 28/27/7 27/28/7
o Plane.011
v 33.410381 0.365800 -8.287879
v 24.659391 0.365800 -8.287882
v 33.410378 0.365800 -5.463791
v 24.659391 0.365800 -5.463794
vn -0.0000 1.0000 -0.0000
vt 0.000000 0.000000
vt 1.000000 0.000000
vt 1.000000 1.000000
vt 0.000000 1.000000
s 0
usemtl Material.008
f 29/29/8 30/30/8 32/31/8 31/32/8
o Plane.012
v 8.069471 0.365800 -13.466664
v 21.035896 0.365800 -13.466656
v 8.069473 0.365800 -15.618452
v 21.035898 0.365800 -15.618443
vn -0.0000 1.0000 -0.0000
vt 0.000000 0.000000
vt 1.000000 0.000000
vt 1.000000 1.000000
vt 0.000000 1.000000
s 0
usemtl Material.008
f 33/33/9 34/34/9 36/35/9 35/36/9
o Plane.013
v -4.620838 0.365800 -13.466665
v 8.345587 0.365800 -13.466658
v -4.620837 0.365800 -15.618452
v 8.345588 0.365800 -15.618444
vn -0.0000 1.0000 -0.0000
vt 0.000000 0.000000
vt 1.000000 0.000000
vt 1.000000 1.000000
vt 0.000000 1.000000
s 0
usemtl Material.008
f 37/37/10 38/38/10 40/39/10 39/40/10
o Plane.014
v -17.272421 0.365800 -13.466667
v -4.305995 0.365800 -13.466660
v -17.272419 0.365800 -15.618454
v -4.305995 0.365800 -15.618446
vn -0.0000 1.0000 -0.0000
vt 0.000000 0.000000
vt 1.000000 0.000000
vt 1.000000 1.000000
vt 0.000000 1.000000
s 0
usemtl Material.008
f 41/41/11 42/42/11 44/43/11 43/44/11
o Plane.015
v -29.962729 0.365800 -13.466668
v -16.996304 0.365800 -13.466660
v -29.962727 0.365800 -15.618456
v -16.996302 0.365800 -15.618447
vn -0.0000 1.0000 -0.0000
vt 0.000000 0.000000
vt 1.000000 0.000000
vt 1.000000 1.000000
vt 0.000000 1.000000
s 0
usemtl Material.008
f 45/45/12 46/46/12 48/47/12 47/48/12
o Plane.016
v 20.757336 0.365800 -13.466664
v 32.631470 0.365800 -13.466657
v 20.757336 0.365800 -15.618451
v 32.631470 0.365800 -15.618443
vn -0.0000 1.0000 -0.0000
vt 0.000000 0.000000
vt 1.000000 0.000000
vt 1.000000 1.000000
vt 0.000000 1.000000
s 0
usemtl Material.008
f 49/49/13 50/50/13 52/51/13 51/52/13
o Plane.017
v -32.595970 0.381010 -15.614142
v -30.516014 0.381010 -15.614142
v -32.595970 0.381010 -16.787100
v -30.516014 0.381010 -16.787100
vn -0.0000 1.0000 -0.0000
vt 0.000000 0.000000
vt 1.000000 0.000000
vt 1.000000 1.000000
vt 0.000000 1.000000
s 0
usemtl Material.009
f 53/53/14 54/54/14 56/55/14 55/56/14
o Plane.018
v -46.252983 0.381010 -23.544712
v -44.173027 0.381010 -23.544712
v -46.252983 0.381010 -24.717670
v -44.173027 0.381010 -24.717670
vn -0.0000 1.0000 -0.0000
vt 0.000000 0.000000
vt 1.000000 0.000000
vt 1.000000 1.000000
vt 0.000000 1.000000
s 0
usemtl Material.009
f 57/57/15 58/58/15 60/59/15 59/60/15
o Plane.019
v -33.727486 0.381010 -23.544712
v -31.647530 0.381010 -23.544712
v -33.727486 0.381010 -24.717670
v -31.647530 0.381010 -24.717670
vn -0.0000 1.0000 -0.0000
vt 0.000000 0.000000
vt 1.000000 0.000000
vt 1.000000 1.000000
vt 0.000000 1.000000
s 0
usemtl Material.009
f 61/61/16 62/62/16 64/63/16 63/64/16
o Plane.020
v -17.398434 0.381010 -23.544712
v -15.318477 0.381010 -23.544712
v -17.398434 0.381010 -24.717670
v -15.318477 0.381010 -24.717670
vn -0.0000 1.0000 -0.0000
vt 0.000000 0.000000
vt 1.000000 0.000000
vt 1.000000 1.000000
vt 0.000000 1.000000
s 0
usemtl Material.009
f 65/65/17 66/66/17 68/67/17 67/68/17
o Plane.021
v -4.072041 0.381010 -23.544712
v -1.992083 0.381010 -23.544712
v -4.072041 0.381010 -24.717670
v -1.992083 0.381010 -24.717670
vn -0.0000 1.0000 -0.0000
vt 0.000000 0.000000
vt 1.000000 0.000000
vt 1.000000 1.000000
vt 0.000000 1.000000
s 0
usemtl Material.009
f 69/69/18 70/70/18 72/71/18 71/72/18
o Plane.022
v 9.662305 0.381010 -23.544712
v 11.742263 0.381010 -23.544712
v 9.662305 0.381010 -24.717670
v 11.742263 0.381010 -24.717670
vn -0.0000 1.0000 -0.0000
vt 0.000000 0.000000
vt 1.000000 0.000000
vt 1.000000 1.000000
vt 0.000000 1.000000
s 0
usemtl Material.009
f 73/73/19 74/74/19 76/75/19 75/76/19
o Plane.023
v 23.940586 0.381010 -23.544712
v 26.020542 0.381010 -23.544712
v 23.940586 0.381010 -24.717670
v 26.020542 0.381010 -24.717670
vn -0.0000 1.0000 -0.0000
vt 0.000000 0.000000
vt 1.000000 0.000000
vt 1.000000 1.000000
vt 0.000000 1.000000
s 0
usemtl Material.009
f 77/77/20 78/78/20 80/79/20 79/80/20
o Plane.024
v 37.130997 0.381010 -23.544712
v 39.210953 0.381010 -23.544712
v 37.130997 0.381010 -24.717670
v 39.210953 0.381010 -24.717670
vn -0.0000 1.0000 -0.0000
vt 0.000000 0.000000
vt 1.000000 0.000000
vt 1.000000 1.000000
vt 0.000000 1.000000
s 0
usemtl Material.009
f 81/81/21 82/82/21 84/83/21 83/84/21
o Plane.025
v 50.049438 0.381010 -23.544712
v 52.129395 0.381010 -23.544712
v 50.049438 0.381010 -24.717670
v 52.129395 0.381010 -24.717670
vn -0.0000 1.0000 -0.0000
vt 0.000000 0.000000
vt 1.000000 0.000000
vt 1.000000 1.000000
vt 0.000000 1.000000
s 0
usemtl Material.009
f 85/85/22 86/86/22 88/87/22 87/88/22
o Plane.026
v -42.343410 0.381010 24.038689
v -40.263454 0.381010 24.038689
v -42.343410 0.381010 22.865730
v -40.263454 0.381010 22.865730
vn -0.0000 1.0000 -0.0000
vt 0.000000 0.000000
vt 1.000000 0.000000
vt 1.000000 1.000000
vt 0.000000 1.000000
s 0
usemtl Material.009
f 89/89/23 90/90/23 92/91/23 91/92/23
o Plane.027
v -26.014357 0.381010 24.038689
v -23.934401 0.381010 24.038689
v -26.014357 0.381010 22.865730
v -23.934401 0.381010 22.865730
vn -0.0000 1.0000 -0.0000
vt 0.000000 0.000000
vt 1.000000 0.000000
vt 1.000000 1.000000
vt 0.000000 1.000000
s 0
usemtl Material.009
f 93/93/24 94/94/24 96/95/24 95/96/24
o Plane.028
v -12.687964 0.381010 24.038689
v -10.608006 0.381010 24.038689
v -12.687964 0.381010 22.865730
v -10.608006 0.381010 22.865730
vn -0.0000 1.0000 -0.0000
vt 0.000000 0.000000
vt 1.000000 0.000000
vt 1.000000 1.000000
vt 0.000000 1.000000
s 0
usemtl Material.009
f 97/97/25 98/98/25 100/99/25 99/100/25
o Plane.029
v 1.046382 0.381010 24.038689
v 3.126339 0.381010 24.038689
v 1.046382 0.381010 22.865730
v 3.126339 0.381010 22.865730
vn -0.0000 1.0000 -0.0000
vt 0.000000 0.000000
vt 1.000000 0.000000
vt 1.000000 1.000000
vt 0.000000 1.000000
s 0
usemtl Material.009
f 101/101/26 102/102/26 104/103/26 103/104/26
o Plane.030
v 15.324662 0.381010 24.038689
v 17.404619 0.381010 24.038689
v 15.324662 0.381010 22.865730
v 17.404619 0.381010 22.865730
vn -0.0000 1.0000 -0.0000
vt 0.000000 0.000000
vt 1.000000 0.000000
vt 1.000000 1.000000
vt 0.000000 1.000000
s 0
usemtl Material.009
f 105/105/27 106/106/27 108/107/27 107/108/27
o Plane.031
v 28.515074 0.381010 24.038689
v 30.595030 0.381010 24.038689
v 28.515074 0.381010 22.865730
v 30.595030 0.381010 22.865730
vn -0.0000 1.0000 -0.0000
vt 0.000000 0.000000
vt 1.000000 0.000000
vt 1.000000 1.000000
vt 0.000000 1.000000
s 0
usemtl Material.009
f 109/109/28 110/110/28 112/111/28 111/112/28
o Plane.032
v 41.433514 0.381010 24.038689
v 43.513470 0.381010 24.038689
v 41.433514 0.381010 22.865730
v 43.513470 0.381010 22.865730
vn -0.0000 1.0000 -0.0000
vt 0.000000 0.000000
vt 1.000000 0.000000
vt 1.000000 1.000000
vt 0.000000 1.000000
s 0
usemtl Material.009
f 113/113/29 114/114/29 116/115/29 115/116/29
o Plane.033
v -32.595970 0.367424 16.369211
v -30.516014 0.367424 16.369211
v -32.595970 0.367424 15.196254
v -30.516014 0.367424 15.196254
vn -0.0000 1.0000 -0.0000
vt 0.000000 0.000000
vt 1.000000 0.000000
vt 1.000000 1.000000
vt 0.000000 1.000000
s 0
usemtl Material.009
f 117/117/30 118/118/30 120/119/30 119/120/30
o Plane.034
v 21.525507 0.381010 16.369211
v 23.605463 0.381010 16.369211
v 21.525507 0.381010 15.196254
v 23.605463 0.381010 15.196254
vn -0.0000 1.0000 -0.0000
vt 0.000000 0.000000
vt 1.000000 0.000000
vt 1.000000 1.000000
vt 0.000000 1.000000
s 0
usemtl Material.009
f 121/121/31 122/122/31 124/123/31 123/124/31
o Plane.035
v 21.525507 0.381010 -15.614142
v 23.605463 0.381010 -15.614142
v 21.525507 0.381010 -16.787100
v 23.605463 0.381010 -16.787100
vn -0.0000 1.0000 -0.0000
vt 0.000000 0.000000
vt 1.000000 0.000000
vt 1.000000 1.000000
vt 0.000000 1.000000
s 0
usemtl Material.009
f 125/125/32 126/126/32 128/127/32 127/128/32
o Plane.036
v -51.781460 0.365800 -8.219359
v -51.781460 0.365800 -10.379523
v -52.999645 0.365800 -8.219359
v -52.999645 0.365800 -10.379523
vn -0.0000 1.0000 -0.0000
vt 0.000000 0.000000
vt 1.000000 0.000000
vt 1.000000 1.000000
vt 0.000000 1.000000
s 0
usemtl Material.010
f 129/129/33 130/130/33 132/131/33 131/132/33
o Plane.037
v -51.781460 0.365800 16.950914
v -51.781460 0.365800 14.790751
v -52.999645 0.365800 16.950914
v -52.999645 0.365800 14.790751
vn -0.0000 1.0000 -0.0000
vt 0.000000 0.000000
vt 1.000000 0.000000
vt 1.000000 1.000000
vt 0.000000 1.000000
s 0
usemtl Material.010
f 133/133/34 134/134/34 136/135/34 135/136/34
o Plane.038
v -33.097649 0.365801 -13.678247
v -29.812511 0.365801 -13.678247
v -33.097649 0.365801 -15.806690
v -29.812511 0.365801 -15.806690
vn -0.0000 1.0000 -0.0000
vt 0.000000 0.000000
vt 1.000000 0.000000
vt 1.000000 1.000000
vt 0.000000 1.000000
s 0
usemtl Material.011
f 137/137/35 138/138/35 140/139/35 139/140/35
o Plane.039
v 24.290882 0.365801 -20.500050
v 20.563904 0.365801 -20.500050
v 24.290882 0.365801 -16.718506
v 20.563904 0.365801 -16.718506
vn -0.0000 1.0000 -0.0000
vt 0.000000 0.000000
vt 1.000000 0.000000
vt 1.000000 1.000000
vt 0.000000 1.000000
s 0
usemtl Material.011
f 141/141/36 142/142/36 144/143/36 143/144/36
o Plane.040
v -48.868343 0.365801 -7.835010
v -48.868343 0.365801 -10.853075
v -51.930592 0.365801 -7.835009
v -51.930592 0.365801 -10.853074
vn -0.0000 1.0000 -0.0000
vt 0.000000 0.000000
vt 1.000000 0.000000
vt 1.000000 1.000000
vt 0.000000 1.000000
s 0
usemtl Material.011
f 145/145/37 146/146/37 148/147/37 147/148/37
o Plane.041
v -30.800346 0.365800 14.152435
v -32.345211 0.365800 14.152435
v -30.800346 0.365800 15.336849
v -32.345211 0.365800 15.336849
vn -0.0000 1.0000 -0.0000
vt 0.000000 0.000000
vt 1.000000 0.000000
vt 1.000000 1.000000
vt 0.000000 1.000000
s 0
usemtl Material.012
f 149/149/38 150/150/38 152/151/38 151/152/38
o Plane.042
v 23.338404 0.365800 14.152435
v 21.793539 0.365800 14.152435
v 23.338404 0.365800 15.336849
v 21.793539 0.365800 15.336849
vn -0.0000 1.0000 -0.0000
vt 0.000000 0.000000
vt 1.000000 0.000000
vt 1.000000 1.000000
vt 0.000000 1.000000
s 0
usemtl Material.012
f 153/153/39 154/154/39 156/155/39 155/156/39
o Plane.043
v -50.716927 0.365800 16.678883
v -50.716927 0.365800 15.082692
v -51.901344 0.365800 16.678883
v -51.901344 0.365800 15.082692
vn -0.0000 1.0000 -0.0000
vt 0.000000 0.000000
vt 1.000000 0.000000
vt 1.000000 1.000000
vt 0.000000 1.000000
s 0
usemtl Material.012
f 157/157/40 158/158/40 160/159/40 159/160/40
o Plane.044
v -16.572033 0.365800 16.584206
v -21.974731 0.365800 16.584208
v -16.572033 0.365800 17.818869
v -21.974731 0.365800 17.818871
vn -0.0000 1.0000 -0.0000
vt 0.000000 0.000000
vt 1.000000 0.000000
vt 1.000000 1.000000
vt 0.000000 1.000000
s 0
usemtl Material.012
f 161/161/41 162/162/41 164/163/41 163/164/41
o Plane.045
v -21.865728 0.365800 16.584206
v -27.268427 0.365800 16.584208
v -21.865728 0.365800 17.818869
v -27.268427 0.365800 17.818871
vn -0.0000 1.0000 -0.0000
vt 0.000000 0.000000
vt 1.000000 0.000000
vt 1.000000 1.000000
vt 0.000000 1.000000
s 0
usemtl Material.012
f 165/165/42 166/166/42 168/167/42 167/168/42
o Plane.046
v -27.196558 0.365800 16.584206
v -32.599258 0.365800 16.584208
v -27.196558 0.365800 17.818869
v -32.599258 0.365800 17.818871
vn -0.0000 1.0000 -0.0000
vt 0.000000 0.000000
vt 1.000000 0.000000
vt 1.000000 1.000000
vt 0.000000 1.000000
s 0
usemtl Material.012
f 169/169/43 170/170/43 172/171/43 171/172/43
o Plane.047
v -32.490250 0.365800 16.584206
v -37.892952 0.365800 16.584208
v -32.490250 0.365800 17.818869
v -37.892952 0.365800 17.818871
vn -0.0000 1.0000 -0.0000
vt 0.000000 0.000000
vt 1.000000 0.000000
vt 1.000000 1.000000
vt 0.000000 1.000000
s 0
usemtl Material.012
f 173/173/44 174/174/44 176/175/44 175/176/44
o Plane.048
v -37.717930 0.365800 16.584206
v -43.120632 0.365800 16.584208
v -37.717930 0.365800 17.818869
v -43.120632 0.365800 17.818871
vn -0.0000 1.0000 -0.0000
vt 0.000000 0.000000
vt 1.000000 0.000000
vt 1.000000 1.000000
vt 0.000000 1.000000
s 0
usemtl Material.012
f 177/177/45 178/178/45 180/179/45 179/180/45
o Plane.049
v -43.011620 0.365800 16.584206
v -48.414322 0.365800 16.584208
v -43.011620 0.365800 17.818869
v -48.414322 0.365800 17.818871
vn -0.0000 1.0000 -0.0000
vt 0.000000 0.000000
vt 1.000000 0.000000
vt 1.000000 1.000000
vt 0.000000 1.000000
s 0
usemtl Material.012
f 181/181/46 182/182/46 184/183/46 183/184/46
o Plane.050
v -48.210419 0.365800 16.584206
v -53.613121 0.365800 16.584208
v -48.210419 0.365800 17.818869
v -53.613121 0.365800 17.818871
vn -0.0000 1.0000 -0.0000
vt 0.000000 0.000000
vt 1.000000 0.000000
vt 1.000000 1.000000
vt 0.000000 1.000000
s 0
usemtl Material.012
f 185/185/47 186/186/47 188/187/47 187/188/47
o Plane.051
v -37.936371 0.365800 -7.520662
v -25.994440 0.365800 -7.520662
v -37.936371 0.365800 -14.255114
v -25.994440 0.365800 -14.255114
vn -0.0000 1.0000 -0.0000
vt 0.000000 0.000000
vt 1.000000 0.000000
vt 1.000000 1.000000
vt 0.000000 1.000000
s 0
usemtl Material.013
f 189/189/48 190/190/48 192/191/48 191/192/48
o Plane.052
v -45.214874 0.378728 12.140452
v -33.264893 0.378728 12.140452
v -45.214874 0.378728 5.401464
v -33.264893 0.378728 5.401464
vn -0.0000 1.0000 -0.0000
vt 0.000000 0.000000
vt 1.000000 0.000000
vt 1.000000 1.000000
vt 0.000000 1.000000
s 0
usemtl Material.013
f 193/193/49 194/194/49 196/195/49 195/196/49
o Plane.053
v -13.083176 0.365800 11.474737
v -2.575623 0.365800 11.474737
v -13.083176 0.365800 5.549180
v -2.575623 0.365800 5.549180
vn -0.0000 1.0000 -0.0000
vt 0.000000 0.000000
vt 1.000000 0.000000
vt 1.000000 1.000000
vt 0.000000 1.000000
s 0
usemtl Material.013
f 197/197/50 198/198/50 200/199/50 199/200/50
o Plane.054
v 32.668049 0.365800 3.138809
v 32.668049 0.365800 13.646362
v 38.593609 0.365800 3.138809
v 38.593609 0.365800 13.646362
vn -0.0000 1.0000 -0.0000
vt 0.000000 0.000000
vt 1.000000 0.000000
vt 1.000000 1.000000
vt 0.000000 1.000000
s 0
usemtl Material.013
f 201/201/51 202/202/51 204/203/51 203/204/51
o Plane.055
v 4.364073 0.365800 -5.625110
v -12.282276 0.365800 -5.625116
v 4.364069 0.365800 3.762317
v -12.282280 0.365800 3.762311
vn -0.0000 1.0000 -0.0000
vt 0.000000 0.000000
vt 1.000000 0.000000
vt 1.000000 1.000000
vt 0.000000 1.000000
s 0
usemtl Material.013
f 205/205/52 206/206/52 208/207/52 207/208/52
o Plane.056
v -21.924194 0.365800 -1.831818
v -32.465931 0.365800 -1.831821
v -21.924198 0.365800 4.113016
v -32.465935 0.365800 4.113012
vn -0.0000 1.0000 -0.0000
vt 0.000000 0.000000
vt 1.000000 0.000000
vt 1.000000 1.000000
vt 0.000000 1.000000
s 0
usemtl Material.013
f 209/209/53 210/210/53 212/211/53 211/212/53
o Plane.057
v 38.814907 0.365800 -1.831818
v 28.273170 0.365800 -1.831821
v 38.814903 0.365800 4.113016
v 28.273167 0.365800 4.113012
vn -0.0000 1.0000 -0.0000
vt 0.000000 0.000000
vt 1.000000 0.000000
vt 1.000000 1.000000
vt 0.000000 1.000000
s 0
usemtl Material.013
f 213/213/54 214/214/54 216/215/54 215/216/54
o Plane.058
v 21.948166 0.365800 6.057978
v 11.440614 0.365800 6.057981
v 21.948170 0.365800 11.983535
v 11.440616 0.365800 11.983538
vn -0.0000 1.0000 -0.0000
vt 0.000000 0.000000
vt 1.000000 0.000000
vt 1.000000 1.000000
vt 0.000000 1.000000
s 0
usemtl Material.013
f 217/217/55 218/218/55 220/219/55 219/220/55
o Plane.059
v -46.853294 0.374190 -0.056930
v -36.345741 0.374190 -0.056930
v -46.853294 0.374190 -5.982487
v -36.345741 0.374190 -5.982487
vn -0.0000 1.0000 -0.0000
vt 0.000000 0.000000
vt 1.000000 0.000000
vt 1.000000 1.000000
vt 0.000000 1.000000
s 0
usemtl Material.013
f 221/221/56 222/222/56 224/223/56 223/224/56
o Plane.060
v -44.764885 0.375503 2.612565
v -44.764885 0.375503 -7.894989
v -50.690445 0.375503 2.612565
v -50.690445 0.375503 -7.894989
vn -0.0000 1.0000 -0.0000
vt 0.000000 0.000000
vt 1.000000 0.000000
vt 1.000000 1.000000
vt 0.000000 1.000000
s 0
usemtl Material.013
f 225/225/57 226/226/57 228/227/57 227/228/57
o Plane.061
v 42.955944 0.365800 -15.948523
v 42.955944 0.365800 -4.006590
v 49.690395 0.365800 -15.948523
v 49.690395 0.365800 -4.006590
vn -0.0000 1.0000 -0.0000
vt 0.000000 0.000000
vt 1.000000 0.000000
vt 1.000000 1.000000
vt 0.000000 1.000000
s 0
usemtl Material.013
f 229/229/58 230/230/58 232/231/58 231/232/58
o Plane.062
v 51.637684 0.365800 5.986523
v 42.114964 0.365800 5.986519
v 51.637684 0.365800 11.356701
v 42.114964 0.365800 11.356697
vn -0.0000 1.0000 -0.0000
vt 0.000000 0.000000
vt 1.000000 0.000000
vt 1.000000 1.000000
vt 0.000000 1.000000
s 0
usemtl Material.013
f 233/233/59 234/234/59 236/235/59 235/236/59
o Plane.063
v -42.837418 0.365800 -14.012409
v -36.277267 0.365800 -14.012409
v -42.837418 0.365800 -20.007023
v -36.277267 0.365800 -20.007023
vn -0.0000 1.0000 -0.0000
vt 0.000000 0.000000
vt 1.000000 0.000000
vt 1.000000 1.000000
vt 0.000000 1.000000
s 0
usemtl Material.015
f 237/237/60 238/238/60 240/239/60 239/240/60
o Plane.064
v -33.073223 0.376144 11.203375
v -26.513069 0.376144 11.203375
v -33.073223 0.376144 5.208762
v -26.513069 0.376144 5.208762
vn -0.0000 1.0000 -0.0000
vt 0.000000 0.000000
vt 1.000000 0.000000
vt 1.000000 1.000000
vt 0.000000 1.000000
s 0
usemtl Material.015
f 241/241/61 242/242/61 244/243/61 243/244/61
o Plane.065
v -47.640999 0.365800 17.001495
v -41.080849 0.365800 17.001495
v -47.640999 0.365800 11.006882
v -41.080849 0.365800 11.006882
vn -0.0000 1.0000 -0.0000
vt 0.000000 0.000000
vt 1.000000 0.000000
vt 1.000000 1.000000
vt 0.000000 1.000000
s 0
usemtl Material.015
f 245/245/62 246/246/62 248/247/62 247/248/62
o Plane.066
v -16.165192 0.365800 8.820339
v -22.725344 0.365800 8.820341
v -16.165190 0.365800 14.814953
v -22.725342 0.365800 14.814955
vn -0.0000 1.0000 -0.0000
vt 0.000000 0.000000
vt 1.000000 0.000000
vt 1.000000 1.000000
vt 0.000000 1.000000
s 0
usemtl Material.015
f 249/249/63 250/250/63 252/251/63 251/252/63
o Plane.067
v 22.623449 0.365800 7.261416
v 22.623453 0.365800 13.821568
v 28.618063 0.365800 7.261413
v 28.618067 0.365800 13.821566
vn -0.0000 1.0000 -0.0000
vt 0.000000 0.000000
vt 1.000000 0.000000
vt 1.000000 1.000000
vt 0.000000 1.000000
s 0
usemtl Material.015
f 253/253/64 254/254/64 256/255/64 255/256/64
o Plane.068
v 47.041424 0.365800 -2.453104
v 50.013454 0.365800 5.804268
v 54.586941 0.365800 -5.168918
v 57.558971 0.365800 3.088454
vn -0.0000 1.0000 -0.0000
vt 0.000000 0.000000
vt 1.000000 0.000000
vt 1.000000 1.000000
vt 0.000000 1.000000
s 0
usemtl Material.015
f 257/257/65 258/258/65 260/259/65 259/260/65
o Plane.069
v 46.768665 0.365800 -5.981399
v 38.068680 0.365800 -4.829264
v 47.821480 0.365800 1.968574
v 39.121494 0.365800 3.120709
vn -0.0000 1.0000 -0.0000
vt 0.000000 0.000000
vt 1.000000 0.000000
vt 1.000000 1.000000
vt 0.000000 1.000000
s 0
usemtl Material.015
f 261/261/66 262/262/66 264/263/66 263/264/66
o Plane.070
v -53.527580 0.386190 -0.123888
v -31.528475 0.386190 -0.123888
v -53.527580 0.386190 -18.784332
v -31.528475 0.386190 -18.784332
vn -0.0000 1.0000 -0.0000
vt 0.000000 0.000000
vt 1.000000 0.000000
vt 1.000000 1.000000
vt 0.000000 1.000000
s 0
usemtl Material.016
f 265/265/67 266/266/67 268/267/67 267/268/67
o Plane.071
v -53.527580 0.386190 17.737555
v -31.528475 0.386190 17.737555
v -53.527580 0.386190 -0.922890
v -31.528475 0.386190 -0.922890
vn -0.0000 1.0000 -0.0000
vt 0.000000 0.000000
vt 1.000000 0.000000
vt 1.000000 1.000000
vt 0.000000 1.000000
s 0
usemtl Material.016
f 269/269/68 270/270/68 272/271/68 271/272/68
o Plane.072
v -31.928936 0.386190 -0.123888
v -9.929832 0.386190 -0.123888
v -31.928936 0.386190 -18.784332
v -9.929832 0.386190 -18.784332
vn -0.0000 1.0000 -0.0000
vt 0.000000 0.000000
vt 1.000000 0.000000
vt 1.000000 1.000000
vt 0.000000 1.000000
s 0
usemtl Material.016
f 273/273/69 274/274/69 276/275/69 275/276/69
o Plane.073
v -31.928936 0.386190 17.737555
v -9.929832 0.386190 17.737555
v -31.928936 0.386190 -0.922890
v -9.929832 0.386190 -0.922890
vn -0.0000 1.0000 -0.0000
vt 0.000000 0.000000
vt 1.000000 0.000000
vt 1.000000 1.000000
vt 0.000000 1.000000
s 0
usemtl Material.016
f 277/277/70 278/278/70 280/279/70 279/280/70
o Plane.074
v -10.054398 0.386190 -0.123888
v 11.944706 0.386190 -0.123888
v -10.054398 0.386190 -18.784332
v 11.944706 0.386190 -18.784332
vn -0.0000 1.0000 -0.0000
vt 0.000000 0.000000
vt 1.000000 0.000000
vt 1.000000 1.000000
vt 0.000000 1.000000
s 0
usemtl Material.016
f 281/281/71 282/282/71 284/283/71 283/284/71
o Plane.075
v -10.054398 0.386190 17.737555
v 11.944706 0.386190 17.737555
v -10.054398 0.386190 -0.922890
v 11.944706 0.386190 -0.922890
vn -0.0000 1.0000 -0.0000
vt 0.000000 0.000000
vt 1.000000 0.000000
vt 1.000000 1.000000
vt 0.000000 1.000000
s 0
usemtl Material.016
f 285/285/72 286/286/72 288/287/72 287/288/72
o Plane.076
v 10.736269 0.386190 -0.123888
v 32.735374 0.386190 -0.123888
v 10.736269 0.386190 -18.784332
v 32.735374 0.386190 -18.784332
vn -0.0000 1.0000 -0.0000
vt 0.000000 0.000000
vt 1.000000 0.000000
vt 1.000000 1.000000
vt 0.000000 1.000000
s 0
usemtl Material.016
f 289/289/73 290/290/73 292/291/73 291/292/73
o Plane.077
v 10.736269 0.386190 17.737555
v 32.735374 0.386190 17.737555
v 10.736269 0.386190 -0.922890
v 32.735374 0.386190 -0.922890
vn -0.0000 1.0000 -0.0000
vt 0.000000 0.000000
vt 1.000000 0.000000
vt 1.000000 1.000000
vt 0.000000 1.000000
s 0
usemtl Material.016
f 293/293/74 294/294/74 296/295/74 295/296/74
o Plane.078
v 32.066338 0.386190 -0.123888
v 54.065445 0.386190 -0.123888
v 32.066338 0.386190 -18.784332
v 54.065445 0.386190 -18.784332
vn -0.0000 1.0000 -0.0000
vt 0.000000 0.000000
vt 1.000000 0.000000
vt 1.000000 1.000000
vt 0.000000 1.000000
s 0
usemtl Material.016
f 297/297/75 298/298/75 300/299/75 299/300/75
o Plane.079
v 32.066338 0.386190 17.737555
v 54.065445 0.386190 17.737555
v 32.066338 0.386190 -0.922890
v 54.065445 0.386190 -0.922890
vn -0.0000 1.0000 -0.0000
vt 0.000000 0.000000
vt 1.000000 0.000000
vt 1.000000 1.000000
vt 0.000000 1.000000
s 0
usemtl Material.016
f 301/301/76 302/302/76 304/303/76 303/304/76
o Plane.080
v -53.527580 0.365800 -37.196857
v -31.528475 0.365800 -37.196857
v -53.527580 0.365800 -55.857304
v -31.528475 0.365800 -55.857304
vn -0.0000 1.0000 -0.0000
vt 0.000000 0.000000
vt 1.000000 0.000000
vt 1.000000 1.000000
vt 0.000000 1.000000
s 0
usemtl Material.016
f 305/305/77 306/306/77 308/307/77 307/308/77
o Plane.081
v -53.527580 0.365800 -19.335415
v -31.528475 0.365800 -19.335415
v -53.527580 0.365800 -37.995861
v -31.528475 0.365800 -37.995861
vn -0.0000 1.0000 -0.0000
vt 0.000000 0.000000
vt 1.000000 0.000000
vt 1.000000 1.000000
vt 0.000000 1.000000
s 0
usemtl Material.016
f 309/309/78 310/310/78 312/311/78 311/312/78
o Plane.082
v -31.928936 0.365800 -37.196857
v -9.929832 0.365800 -37.196857
v -31.928936 0.365800 -55.857304
v -9.929832 0.365800 -55.857304
vn -0.0000 1.0000 -0.0000
vt 0.000000 0.000000
vt 1.000000 0.000000
vt 1.000000 1.000000
vt 0.000000 1.000000
s 0
usemtl Material.016
f 313/313/79 314/314/79 316/315/79 315/316/79
o Plane.083
v -31.928936 0.365800 -19.335415
v -9.929832 0.365800 -19.335415
v -31.928936 0.365800 -37.995861
v -9.929832 0.365800 -37.995861
vn -0.0000 1.0000 -0.0000
vt 0.000000 0.000000
vt 1.000000 0.000000
vt 1.000000 1.000000
vt 0.000000 1.000000
s 0
usemtl Material.016
f 317/317/80 318/318/80 320/319/80 319/320/80
o Plane.084
v -10.054398 0.365800 -37.196857
v 11.944706 0.365800 -37.196857
v -10.054398 0.365800 -55.857304
v 11.944706 0.365800 -55.857304
vn -0.0000 1.0000 -0.0000
vt 0.000000 0.000000
vt 1.000000 0.000000
vt 1.000000 1.000000
vt 0.000000 1.000000
s 0
usemtl Material.016
f 321/321/81 322/322/81 324/323/81 323/324/81
o Plane.085
v -10.054398 0.365800 -19.335415
v 11.944706 0.365800 -19.335415
v -10.054398 0.365800 -37.995861
v 11.944706 0.365800 -37.995861
vn -0.0000 1.0000 -0.0000
vt 0.000000 0.000000
vt 1.000000 0.000000
vt 1.000000 1.000000
vt 0.000000 1.000000
s 0
usemtl Material.016
f 325/325/82 326/326/82 328/327/82 327/328/82
o Plane.086
v 10.736269 0.365800 -37.196857
v 32.735374 0.365800 -37.196857
v 10.736269 0.365800 -55.857304
v 32.735374 0.365800 -55.857304
vn -0.0000 1.0000 -0.0000
vt 0.000000 0.000000
vt 1.000000 0.000000
vt 1.000000 1.000000
vt 0.000000 1.000000
s 0
usemtl Material.016
f 329/329/83 330/330/83 332/331/83 331/332/83
o Plane.087
v 10.736269 0.365800 -19.335415
v 32.735374 0.365800 -19.335415
v 10.736269 0.365800 -37.995861
v 32.735374 0.365800 -37.995861
vn -0.0000 1.0000 -0.0000
vt 0.000000 0.000000
vt 1.000000 0.000000
vt 1.000000 1.000000
vt 0.000000 1.000000
s 0
usemtl Material.016
f 333/333/84 334/334/84 336/335/84 335/336/84
o Plane.088
v 32.066338 0.365800 -37.196857
v 54.065445 0.365800 -37.196857
v 32.066338 0.365800 -55.857304
v 54.065445 0.365800 -55.857304
vn -0.0000 1.0000 -0.0000
vt 0.000000 0.000000
vt 1.000000 0.000000
vt 1.000000 1.000000
vt 0.000000 1.000000
s 0
usemtl Material.016
f 337/337/85 338/338/85 340/339/85 339/340/85
o Plane.089
v 32.066338 0.365800 -19.335415
v 54.065445 0.365800 -19.335415
v 32.066338 0.365800 -37.995861
v 54.065445 0.365800 -37.995861
vn -0.0000 1.0000 -0.0000
vt 0.000000 0.000000
vt 1.000000 0.000000
vt 1.000000 1.000000
vt 0.000000 1.000000
s 0
usemtl Material.016
f 341/341/86 342/342/86 344/343/86 343/344/86
o Plane.090
v -53.527580 0.365800 37.942112
v -31.528475 0.365800 37.942112
v -53.527580 0.365800 19.281666
v -31.528475 0.365800 19.281666
vn -0.0000 1.0000 -0.0000
vt 0.000000 0.000000
vt 1.000000 0.000000
vt 1.000000 1.000000
vt 0.000000 1.000000
s 0
usemtl Material.016
f 345/345/87 346/346/87 348/347/87 347/348/87
o Plane.091
v -53.527580 0.365800 55.803555
v -31.528475 0.365800 55.803555
v -53.527580 0.365800 37.143108
v -31.528475 0.365800 37.143108
vn -0.0000 1.0000 -0.0000
vt 0.000000 0.000000
vt 1.000000 0.000000
vt 1.000000 1.000000
vt 0.000000 1.000000
s 0
usemtl Material.016
f 349/349/88 350/350/88 352/351/88 351/352/88
o Plane.092
v -31.928936 0.365800 37.942112
v -9.929832 0.365800 37.942112
v -31.928936 0.365800 19.281666
v -9.929832 0.365800 19.281666
vn -0.0000 1.0000 -0.0000
vt 0.000000 0.000000
vt 1.000000 0.000000
vt 1.000000 1.000000
vt 0.000000 1.000000
s 0
usemtl Material.016
f 353/353/89 354/354/89 356/355/89 355/356/89
o Plane.093
v -31.928936 0.365800 55.803555
v -9.929832 0.365800 55.803555
v -31.928936 0.365800 37.143108
v -9.929832 0.365800 37.143108
vn -0.0000 1.0000 -0.0000
vt 0.000000 0.000000
vt 1.000000 0.000000
vt 1.000000 1.000000
vt 0.000000 1.000000
s 0
usemtl Material.016
f 357/357/90 358/358/90 360/359/90 359/360/90
o Plane.094
v -10.054398 0.365800 37.942112
v 11.944706 0.365800 37.942112
v -10.054398 0.365800 19.281666
v 11.944706 0.365800 19.281666
vn -0.0000 1.0000 -0.0000
vt 0.000000 0.000000
vt 1.000000 0.000000
vt 1.000000 1.000000
vt 0.000000 1.000000
s 0
usemtl Material.016
f 361/361/91 362/362/91 364/363/91 363/364/91
o Plane.095
v -10.054398 0.365800 55.803555
v 11.944706 0.365800 55.803555
v -10.054398 0.365800 37.143108
v 11.944706 0.365800 37.143108
vn -0.0000 1.0000 -0.0000
vt 0.000000 0.000000
vt 1.000000 0.000000
vt 1.000000 1.000000
vt 0.000000 1.000000
s 0
usemtl Material.016
f 365/365/92 366/366/92 368/367/92 367/368/92
o Plane.096
v 10.736269 0.365800 37.942112
v 32.735374 0.365800 37.942112
v 10.736269 0.365800 19.281666
v 32.735374 0.365800 19.281666
vn -0.0000 1.0000 -0.0000
vt 0.000000 0.000000
vt 1.000000 0.000000
vt 1.000000 1.000000
vt 0.000000 1.000000
s 0
usemtl Material.016
f 369/369/93 370/370/93 372/371/93 371/372/93
o Plane.097
v 10.736269 0.365800 55.803555
v 32.735374 0.365800 55.803555
v 10.736269 0.365800 37.143108
v 32.735374 0.365800 37.143108
vn -0.0000 1.0000 -0.0000
vt 0.000000 0.000000
vt 1.000000 0.000000
vt 1.000000 1.000000
vt 0.000000 1.000000
s 0
usemtl Material.016
f 373/373/94 374/374/94 376/375/94 375/376/94
o Plane.098
v 32.066338 0.365800 37.942112
v 54.065445 0.365800 37.942112
v 32.066338 0.365800 19.281666
v 54.065445 0.365800 19.281666
vn -0.0000 1.0000 -0.0000
vt 0.000000 0.000000
vt 1.000000 0.000000
vt 1.000000 1.000000
vt 0.000000 1.000000
s 0
usemtl Material.016
f 377/377/95 378/378/95 380/379/95 379/380/95
o Plane.099
v 32.066338 0.365800 55.803555
v 54.065445 0.365800 55.803555
v 32.066338 0.365800 37.143108
v 54.065445 0.365800 37.143108
vn -0.0000 1.0000 -0.0000
vt 0.000000 0.000000
vt 1.000000 0.000000
vt 1.000000 1.000000
vt 0.000000 1.000000
s 0
usemtl Material.016
f 381/381/96 382/382/96 384/383/96 383/384/96
o Plane.100
v 39.175201 0.365800 -15.695118
v 30.475218 0.365800 -14.542983
v 40.228012 0.365800 -7.745145
v 31.528028 0.365800 -6.593010
vn -0.0000 1.0000 -0.0000
vt 0.000000 0.000000
vt 1.000000 0.000000
vt 1.000000 1.000000
vt 0.000000 1.000000
s 0
usemtl Material.015
f 385/385/97 386/386/97 388/387/97 387/388/97
o Plane.101
v 21.466740 0.365800 -12.703165
v 13.101227 0.365800 -15.355585
v 19.042980 0.365800 -5.058830
v 10.677467 0.365800 -7.711250
vn -0.0000 1.0000 -0.0000
vt 0.000000 0.000000
vt 1.000000 0.000000
vt 1.000000 1.000000
vt 0.000000 1.000000
s 0
usemtl Material.015
f 389/389/98 390/390/98 392/391/98 391/392/98
o Plane.102
v 1.053449 0.365800 0.025299
v 9.815932 0.365800 0.511126
v 1.497394 0.365800 -7.981785
v 10.259877 0.365800 -7.495958
vn -0.0000 1.0000 -0.0000
vt 0.000000 0.000000
vt 1.000000 0.000000
vt 1.000000 1.000000
vt 0.000000 1.000000
s 0
usemtl Material.015
f 393/393/99 394/394/99 396/395/99 395/396/99
o Plane.103
v -19.472263 0.365800 0.642991
v -11.600965 0.365800 -3.237707
v -23.018412 0.365800 -6.549735
v -15.147115 0.365800 -10.430432
vn -0.0000 1.0000 -0.0000
vt 0.000000 0.000000
vt 1.000000 0.000000
vt 1.000000 1.000000
vt 0.000000 1.000000
s 0
usemtl Material.015
f 397/397/100 398/398/100 400/399/100 399/400/100
o Plane.104
v -75.828400 0.386190 -0.123888
v -53.829300 0.386190 -0.123888
v -75.828400 0.386190 -18.784332
v -53.829300 0.386190 -18.784332
vn -0.0000 1.0000 -0.0000
vt 0.000000 0.000000
vt 1.000000 0.000000
vt 1.000000 1.000000
vt 0.000000 1.000000
s 0
usemtl Material.016
f 401/401/101 402/402/101 404/403/101 403/404/101
o Plane.105
v -75.828400 0.386190 17.737555
v -53.829300 0.386190 17.737555
v -75.828400 0.386190 -0.922890
v -53.829300 0.386190 -0.922890
vn -0.0000 1.0000 -0.0000
vt 0.000000 0.000000
vt 1.000000 0.000000
vt 1.000000 1.000000
vt 0.000000 1.000000
s 0
usemtl Material.016
f 405/405/102 406/406/102 408/407/102 407/408/102
o Plane.106
v -75.828400 0.365800 -37.196857
v -53.829300 0.365800 -37.196857
v -75.828400 0.365800 -55.857304
v -53.829300 0.365800 -55.857304
vn -0.0000 1.0000 -0.0000
vt 0.000000 0.000000
vt 1.000000 0.000000
vt 1.000000 1.000000
vt 0.000000 1.000000
s 0
usemtl Material.016
f 409/409/103 410/410/103 412/411/103 411/412/103
o Plane.107
v -75.828400 0.365800 -19.335415
v -53.829300 0.365800 -19.335415
v -75.828400 0.365800 -37.995861
v -53.829300 0.365800 -37.995861
vn -0.0000 1.0000 -0.0000
vt 0.000000 0.000000
vt 1.000000 0.000000
vt 1.000000 1.000000
vt 0.000000 1.000000
s 0
usemtl Material.016
f 413/413/104 414/414/104 416/415/104 415/416/104
o Plane.108
v -75.828400 0.365800 37.942112
v -53.829300 0.365800 37.942112
v -75.828400 0.365800 19.281666
v -53.829300 0.365800 19.281666
vn -0.0000 1.0000 -0.0000
vt 0.000000 0.000000
vt 1.000000 0.000000
vt 1.000000 1.000000
vt 0.000000 1.000000
s 0
usemtl Material.016
f 417/417/105 418/418/105 420/419/105 419/420/105
o Plane.109
v -75.828400 0.365800 55.803555
v -53.829300 0.365800 55.803555
v -75.828400 0.365800 37.143108
v -53.829300 0.365800 37.143108
vn -0.0000 1.0000 -0.0000
vt 0.000000 0.000000
vt 1.000000 0.000000
vt 1.000000 1.000000
vt 0.000000 1.000000
s 0
usemtl Material.016
f 421/421/106 422/422/106 424/423/106 423/424/106
o Plane.110
v -97.589920 0.386190 -0.123888
v -75.590820 0.386190 -0.123888
v -97.589920 0.386190 -18.784332
v -75.590820 0.386190 -18.784332
vn -0.0000 1.0000 -0.0000
vt 0.000000 0.000000
vt 1.000000 0.000000
vt 1.000000 1.000000
vt 0.000000 1.000000
s 0
usemtl Material.016
f 425/425/107 426/426/107 428/427/107 427/428/107
o Plane.111
v -97.589920 0.386190 17.737555
v -75.590820 0.386190 17.737555
v -97.589920 0.386190 -0.922890
v -75.590820 0.386190 -0.922890
vn -0.0000 1.0000 -0.0000
vt 0.000000 0.000000
vt 1.000000 0.000000
vt 1.000000 1.000000
vt 0.000000 1.000000
s 0
usemtl Material.016
f 429/429/108 430/430/108 432/431/108 431/432/108
o Plane.112
v -97.589920 0.365800 -37.196857
v -75.590820 0.365800 -37.196857
v -97.589920 0.365800 -55.857304
v -75.590820 0.365800 -55.857304
vn -0.0000 1.0000 -0.0000
vt 0.000000 0.000000
vt 1.000000 0.000000
vt 1.000000 1.000000
vt 0.000000 1.000000
s 0
usemtl Material.016
f 433/433/109 434/434/109 436/435/109 435/436/109
o Plane.113
v -97.589920 0.365800 -19.335415
v -75.590820 0.365800 -19.335415
v -97.589920 0.365800 -37.995861
v -75.590820 0.365800 -37.995861
vn -0.0000 1.0000 -0.0000
vt 0.000000 0.000000
vt 1.000000 0.000000
vt 1.000000 1.000000
vt 0.000000 1.000000
s 0
usemtl Material.016
f 437/437/110 438/438/110 440/439/110 439/440/110
o Plane.114
v -97.589920 0.365800 37.942112
v -75.590820 0.365800 37.942112
v -97.589920 0.365800 19.281666
v -75.590820 0.365800 19.281666
vn -0.0000 1.0000 -0.0000
vt 0.000000 0.000000
vt 1.000000 0.000000
vt 1.000000 1.000000
vt 0.000000 1.000000
s 0
usemtl Material.016
f 441/441/111 442/442/111 444/443/111 443/444/111
o Plane.115
v -97.589920 0.365800 55.803555
v -75.590820 0.365800 55.803555
v -97.589920 0.365800 37.143108
v -75.590820 0.365800 37.143108
vn -0.0000 1.0000 -0.0000
vt 0.000000 0.000000
vt 1.000000 0.000000
vt 1.000000 1.000000
vt 0.000000 1.000000
s 0
usemtl Material.016
f 445/445/112 446/446/112 448/447/112 447/448/112
o Plane.116
v -53.527580 0.365800 74.654579
v -31.528475 0.365800 74.654579
v -53.527580 0.365800 55.994133
v -31.528475 0.365800 55.994133
vn -0.0000 1.0000 -0.0000
vt 0.000000 0.000000
vt 1.000000 0.000000
vt 1.000000 1.000000
vt 0.000000 1.000000
s 0
usemtl Material.016
f 449/449/113 450/450/113 452/451/113 451/452/113
o Plane.117
v -31.928936 0.365800 74.654579
v -9.929832 0.365800 74.654579
v -31.928936 0.365800 55.994133
v -9.929832 0.365800 55.994133
vn -0.0000 1.0000 -0.0000
vt 0.000000 0.000000
vt 1.000000 0.000000
vt 1.000000 1.000000
vt 0.000000 1.000000
s 0
usemtl Material.016
f 453/453/114 454/454/114 456/455/114 455/456/114
o Plane.118
v -10.054398 0.365800 74.654579
v 11.944706 0.365800 74.654579
v -10.054398 0.365800 55.994133
v 11.944706 0.365800 55.994133
vn -0.0000 1.0000 -0.0000
vt 0.000000 0.000000
vt 1.000000 0.000000
vt 1.000000 1.000000
vt 0.000000 1.000000
s 0
usemtl Material.016
f 457/457/115 458/458/115 460/459/115 459/460/115
o Plane.119
v 10.736269 0.365800 74.654579
v 32.735374 0.365800 74.654579
v 10.736269 0.365800 55.994133
v 32.735374 0.365800 55.994133
vn -0.0000 1.0000 -0.0000
vt 0.000000 0.000000
vt 1.000000 0.000000
vt 1.000000 1.000000
vt 0.000000 1.000000
s 0
usemtl Material.016
f 461/461/116 462/462/116 464/463/116 463/464/116
o Plane.120
v 32.066338 0.365800 74.654579
v 54.065445 0.365800 74.654579
v 32.066338 0.365800 55.994133
v 54.065445 0.365800 55.994133
vn -0.0000 1.0000 -0.0000
vt 0.000000 0.000000
vt 1.000000 0.000000
vt 1.000000 1.000000
vt 0.000000 1.000000
s 0
usemtl Material.016
f 465/465/117 466/466/117 468/467/117 467/468/117
o Plane.121
v -75.828400 0.365800 74.654579
v -53.829300 0.365800 74.654579
v -75.828400 0.365800 55.994133
v -53.829300 0.365800 55.994133
vn -0.0000 1.0000 -0.0000
vt 0.000000 0.000000
vt 1.000000 0.000000
vt 1.000000 1.000000
vt 0.000000 1.000000
s 0
usemtl Material.016
f 469/469/118 470/470/118 472/471/118 471/472/118
o Plane.122
v -97.589920 0.365800 74.654579
v -75.590820 0.365800 74.654579
v -97.589920 0.365800 55.994133
v -75.590820 0.365800 55.994133
vn -0.0000 1.0000 -0.0000
vt 0.000000 0.000000
vt 1.000000 0.000000
vt 1.000000 1.000000
vt 0.000000 1.000000
s 0
usemtl Material.016
f 473/473/119 474/474/119 476/475/119 475/476/119
o Plane.123
v -53.527580 0.365800 -55.678070
v -31.528475 0.365800 -55.678070
v -53.527580 0.365800 -74.338516
v -31.528475 0.365800 -74.338516
vn -0.0000 1.0000 -0.0000
vt 0.000000 0.000000
vt 1.000000 0.000000
vt 1.000000 1.000000
vt 0.000000 1.000000
s 0
usemtl Material.016
f 477/477/120 478/478/120 480/479/120 479/480/120
o Plane.124
v -31.928936 0.365800 -55.678070
v -9.929832 0.365800 -55.678070
v -31.928936 0.365800 -74.338516
v -9.929832 0.365800 -74.338516
vn -0.0000 1.0000 -0.0000
vt 0.000000 0.000000
vt 1.000000 0.000000
vt 1.000000 1.000000
vt 0.000000 1.000000
s 0
usemtl Material.016
f 481/481/121 482/482/121 484/483/121 483/484/121
o Plane.125
v -10.054398 0.365800 -55.678070
v 11.944706 0.365800 -55.678070
v -10.054398 0.365800 -74.338516
v 11.944706 0.365800 -74.338516
vn -0.0000 1.0000 -0.0000
vt 0.000000 0.000000
vt 1.000000 0.000000
vt 1.000000 1.000000
vt 0.000000 1.000000
s 0
usemtl Material.016
f 485/485/122 486/486/122 488/487/122 487/488/122
o Plane.126
v 10.736269 0.365800 -55.678070
v 32.735374 0.365800 -55.678070
v 10.736269 0.365800 -74.338516
v 32.735374 0.365800 -74.338516
vn -0.0000 1.0000 -0.0000
vt 0.000000 0.000000
vt 1.000000 0.000000
vt 1.000000 1.000000
vt 0.000000 1.000000
s 0
usemtl Material.016
f 489/489/123 490/490/123 492/491/123 491/492/123
o Plane.127
v 32.066338 0.365800 -55.678070
v 54.065445 0.365800 -55.678070
v 32.066338 0.365800 -74.338516
v 54.065445 0.365800 -74.338516
vn -0.0000 1.0000 -0.0000
vt 0.000000 0.000000
vt 1.000000 0.000000
vt 1.000000 1.000000
vt 0.000000 1.000000
s 0
usemtl Material.016
f 493/493/124 494/494/124 496/495/124 495/496/124
o Plane.128
v -75.828400 0.365800 -55.678070
v -53.829300 0.365800 -55.678070
v -75.828400 0.365800 -74.338516
v -53.829300 0.365800 -74.338516
vn -0.0000 1.0000 -0.0000
vt 0.000000 0.000000
vt 1.000000 0.000000
vt 1.000000 1.000000
vt 0.000000 1.000000
s 0
usemtl Material.016
f 497/497/125 498/498/125 500/499/125 499/500/125
